<svg xmlns="http://www.w3.org/2000/svg" xmlns:xlink="http://www.w3.org/1999/xlink" viewBox="0 0 149.72 143.08"><defs><style>.cls-1{fill:none;clip-rule:evenodd;}.cls-2{fill:#1d1d1b;}.cls-10,.cls-11,.cls-13,.cls-2,.cls-4,.cls-7{fill-rule:evenodd;}.cls-3,.cls-7{fill:#010101;}.cls-4{fill:#ec6625;}.cls-5{clip-path:url(#clip-path);}.cls-6{fill:url(#linear-gradient);}.cls-8{clip-path:url(#clip-path-2);}.cls-9{fill:url(#linear-gradient-2);}.cls-10{fill:#353434;}.cls-11{fill:#dfe1e2;}.cls-12{fill:#fff;}.cls-13{fill:#b64820;}</style><clipPath id="clip-path"><path class="cls-1" d="M41.82,47.39h0c-.32,0-.39.23-.44.46s-.11.55-.54.44A10.85,10.85,0,0,0,33.3,49h0l.14.12,0,0c.37.31.73.64,1.1,1l.3.28c.41.37.81.75,1.21,1.15l.18.18c.33.34.65.68,1,1,.08.1.17.19.25.28.37.43.73.86,1.06,1.31h0a.16.16,0,0,1,0,.13h0a.49.49,0,0,1-.06.13h0A3.61,3.61,0,0,1,38,55l0,0s0,0,0,0l0,0,0,0a.3.3,0,0,0-.06.11v0a.13.13,0,0,0,0,.12h0c.92,1.44,2.55,2.73,3.37,4.18a1,1,0,0,1,.08.22v0a.34.34,0,0,1,0,.15h0l-.1.12-.2.14-.18.13,0,0s0,0,0,0l0,0a.3.3,0,0,0-.06.14s0,0,0,0a.79.79,0,0,0,0,.2h0a.43.43,0,0,1,.18.06l.06,0a1.1,1.1,0,0,1,.18.14l.1.09.13.15,0,0,.12.16,0,.06a1.27,1.27,0,0,1,.13.19l0,0c.06.08.11.17.16.25l.14.24h0c.07.11.13.23.19.34l0,.08c.18.35.35.68.47.93l0,0,.06.12a.32.32,0,0,1,0,.16s0,0,0,0a.76.76,0,0,1,0,.11.05.05,0,0,0,0,0,4.31,4.31,0,0,1-.3.34h0v0l-.09.1-.06.07a.35.35,0,0,1-.05.08l0,.09a.14.14,0,0,0,0,.06.25.25,0,0,0,0,.14h0c.31.61.62,1.21.94,1.8l0,0c.31.58.64,1.14,1,1.68l0,0,.06.09.29.46,0,.06,0,0c.19.29.38.58.58.86h0c.13.19.27.37.41.56h0c.28.37.57.73.88,1.08h0a18.27,18.27,0,0,0,1.44,1.48l0,0,.26.23.06,0c.11.1.22.2.34.29l.15.12a.27.27,0,0,0,.08.07l.28.21.2.16.1.06c.11.09.24.17.36.25l.14.1.05,0,.37.24.2.12.13.07.1.06.09,0,.06,0c.4.23.81.43,1.24.63l.06,0h0l.29.12.32.14.11,0,.38.14.07,0,.42.15.28.09.09,0,.53.16.33.09.74.18.15,0,.92.18.35.06.63.1.42,0,.6.07.46,0,.6,0,.5,0L61,78h2.41l.78,0,.56,0,.83-.06.57,0,.89-.09.57,0,1-.13.52-.06,1.19-.17.39-.06,1.6-.27h0l1.77-.34h0a17.45,17.45,0,0,1-2.32-1,14,14,0,0,1-6.14-6.82l-.11-.24c-1.08-3.13-1.94-8.82-4.38-11.19-.18-.16-.35.11-.51.39s-.32.57-.47.37c-1.5-2.09-2.64-5-4.55-6.2-.26-.16-.45,0-.63.19s-.38.36-.63.17a25.29,25.29,0,0,0-5.6-3.59c-.27-.1-.38.06-.51.23s-.24.31-.51.23c-1.77-.58-3.85-1.62-5.9-1.78h0"/></clipPath><linearGradient id="linear-gradient" x1="68.33" y1="49.98" x2="37.53" y2="76.79" gradientUnits="userSpaceOnUse"><stop offset="0" stop-color="#90c143"/><stop offset="0.38" stop-color="#90c143"/><stop offset="0.75" stop-color="#66843a"/><stop offset="1" stop-color="#66843a"/></linearGradient><clipPath id="clip-path-2"><path class="cls-1" d="M107.58,47.39h-.06c-2.06.16-4.13,1.2-5.91,1.78-.27.08-.39-.08-.51-.23s-.24-.33-.5-.23A24.83,24.83,0,0,0,95,52.31c-.25.19-.44,0-.63-.17s-.38-.35-.63-.19a4.94,4.94,0,0,0-.85.69l-.31.32-.15.18c-.15.18-.3.36-.44.56-1,1.36-1.82,3.08-2.81,4.45-.15.2-.3-.08-.47-.37s-.33-.55-.5-.39l-.22.24c-1,1.22-1.27,3.58-1.39,6.06v0c0,1-.06,2-.09,3v0c0,.9-.07,1.76-.14,2.53a9.44,9.44,0,0,1-.37,2c-2.41,5.16-7.6,4.24-10.74,5.36h0l1.89.36.38.06,1.41.23.49.08,1.24.17.48.06,1.24.14.37,0c1,.1,2,.16,3,.19h.39l.72,0h.21L88,78h.92l.55,0,.49,0h.1l.31,0,.44,0h.11l.27,0,.09,0h.07l.21,0,.35-.06.35,0h.07l.12,0,.11,0,.15,0,.6-.12.28-.06.15,0,.32-.08.49-.13.22-.06.1,0,.3-.1.12,0,.29-.09.27-.1.22-.07.37-.14h0l.18-.08.18-.08.37-.15h0l.35-.16,0,0,.92-.48,0,0,.33-.18.28-.18.21-.13.12-.08c.21-.13.41-.27.6-.41l.57-.44.08-.07.12-.09.34-.29.24-.21,0,0h0l.51-.49,0-.06c.12-.11.23-.23.34-.35l.21-.22.05-.06.32-.36.22-.24.08-.1.16-.2.2-.25.21-.28c.15-.18.28-.37.42-.57a1,1,0,0,0,.08-.11l.39-.57c0-.07.09-.14.14-.2l0,0,.07-.11.28-.45a1.18,1.18,0,0,0,.11-.19l.12-.18.15-.25.18-.32,0,0a1.28,1.28,0,0,1,.11-.2.31.31,0,0,0,0-.1l.18-.32a1.28,1.28,0,0,0,.11-.2l.17-.31.25-.47,0,0,.11-.2,0-.09.18-.34c0-.11.11-.22.17-.33a.3.3,0,0,0,0-.12s0,0,0,0h0a.08.08,0,0,0,0,0,0,0,0,0,0,0,0,.08.08,0,0,0,0,0v0h0l0,0a1.29,1.29,0,0,0-.16-.18h0l-.19-.2a.21.21,0,0,0,0-.06.44.44,0,0,1-.08-.11h0a.47.47,0,0,1-.06-.15h0a.41.41,0,0,1,0-.16h0l.06-.1a.14.14,0,0,0,0-.06l.07-.13.07-.14.06-.13.11-.23L107,63l.22-.41,0,0,.09-.16h0l.14-.25h0a.35.35,0,0,0,0-.08.25.25,0,0,0,0-.07l.16-.24.09-.12.08-.12h0a2.49,2.49,0,0,1,.25-.29l0,0s0,0,.05,0h0a.31.31,0,0,1,.11-.09l0,0h0a.24.24,0,0,1,.11-.06l0,0,.12,0h0a.36.36,0,0,0,0-.2.07.07,0,0,0,0-.05v0s0,0,0,0l0,0v0l0,0,0,0,0-.05h0l0,0h0l-.1-.06h0l-.18-.12,0,0a.4.4,0,0,1-.1-.12h0a.22.22,0,0,1,0-.16v0a1,1,0,0,1,.08-.22h0c.81-1.45,2.45-2.74,3.37-4.17a.21.21,0,0,0,0-.13v0a.3.3,0,0,0-.06-.11l0,0v0l0,0,0,0c-.11-.1-.25-.2-.37-.3l0,0a.38.38,0,0,1-.09-.09l0,0a.36.36,0,0,1,0-.09s0,0,0,0a.2.2,0,0,1,0-.11v0l.06-.08.36-.46.34-.42.33-.39.17-.19.17-.18a2.85,2.85,0,0,1,.23-.26h0l0,0,.34-.35c0-.06.11-.11.17-.17l.29-.3.39-.38.14-.14,1-.94.53-.46.69-.6h0a10.86,10.86,0,0,0-7.53-.69c-.43.11-.48-.16-.54-.44s-.13-.46-.44-.46"/></clipPath><linearGradient id="linear-gradient-2" x1="118.81" y1="47.28" x2="80.08" y2="73.08" xlink:href="#linear-gradient"/></defs><g id="Layer_2" data-name="Layer 2"><g id="Layer_1-2" data-name="Layer 1"><path class="cls-2" d="M129.23,48.9l7.77-3c.07.1.23.42.48.94s.42.91.53,1.19q1.16,3-1.27,3.92a2.65,2.65,0,0,1-2.62-.17A3,3,0,0,1,133,50.32a2.56,2.56,0,0,1-.25-.94l-2.9,1.13Zm-4-7.06,7.21-4.18a9.46,9.46,0,0,1,.61.85c.32.47.56.83.72,1.09q1.59,2.76-.66,4.08a2.67,2.67,0,0,1-2.61.23,3,3,0,0,1-1.32-1.25,2.42,2.42,0,0,1-.39-.89l-2.7,1.56Zm7-2L130,41.07a2.3,2.3,0,0,0,.31.81,1,1,0,0,0,.75.53,1.63,1.63,0,0,0,1-.26c.77-.44,1-1,.57-1.68A2.08,2.08,0,0,0,132.22,39.81ZM75.14,14.44l.24-8.35,1.73,0-.2,7,3.12.09,0,1.39ZM51.07,19.21l-1.58.62-3-7.78L48,11.43l1.22,3.12,3.34-1.3-1.22-3.12L53,9.5l3,7.78-1.61.63L53.1,14.54l-3.34,1.3Zm88.88,74q-.3-.31-.87-1a4.8,4.8,0,0,0,.87-1.74c.17-.7,0-1.13-.55-1.25a.71.71,0,0,0-.62.12,4.13,4.13,0,0,0-.74.89A5.66,5.66,0,0,1,136.41,92a2.19,2.19,0,0,1-1.66.25A2.29,2.29,0,0,1,133,90.85a3.32,3.32,0,0,1-.11-2,5.51,5.51,0,0,1,1.65-2.65l.87,1a3.42,3.42,0,0,0-.95,1.79c-.2.89.05,1.41.76,1.58.46.1,1-.28,1.52-1.16.86-1.41,1.87-2,3-1.72a2,2,0,0,1,1.45,1.15,3,3,0,0,1,.13,2A4.46,4.46,0,0,1,140,93.19ZM21.67,32.33c.11.27.25.68.45,1.22a4.85,4.85,0,0,0-1.47,1.27c-.43.59-.41,1,0,1.37a.69.69,0,0,0,.61.13,4.23,4.23,0,0,0,1-.55,5.77,5.77,0,0,1,2.17-1,2.22,2.22,0,0,1,1.63.4,2.28,2.28,0,0,1,1.05,1.93,3.24,3.24,0,0,1-.68,1.93A5.51,5.51,0,0,1,24,40.88l-.42-1.25a3.4,3.4,0,0,0,1.55-1.3c.53-.74.49-1.32-.1-1.74-.39-.28-1-.12-1.84.49-1.34,1-2.48,1.12-3.43.45a2,2,0,0,1-.91-1.62A3.11,3.11,0,0,1,19.47,34,4.44,4.44,0,0,1,21.67,32.33Zm35.19-24,5.33-1.23.31,1.35-3.64.84.44,1.92,3-.7.31,1.35-3,.7.5,2.17,3.81-.88.31,1.35-5.49,1.27ZM20.92,47.66l.86-1.49-2.7-1.56a1.75,1.75,0,0,0,.47-.6c.09-.15.14-.27.18-.35l3.32.3.87-1.51c-1.76-.13-3.05-.25-3.84-.34a3,3,0,0,0-1.5-2.19q-2.26-1.31-3.86,1.46c-.15.26-.35.65-.6,1.16a10.32,10.32,0,0,0-.43,1Zm-5.23-5A1.9,1.9,0,0,1,16,41.9a1.07,1.07,0,0,1,1.65-.41c.87.51,1.11,1.09.73,1.74a3,3,0,0,1-.53.68ZM128,31.5l-8.47,2.75,1.07,1.36,1.72-.63,1.85,2.35-1,1.51,1.09,1.38,4.66-7.58Zm-1.32,2L125,36.07l-1.24-1.58C125,34.06,126,33.71,126.68,33.48ZM9.25,88.44l.65,2.84,1.65-.38a1.23,1.23,0,0,1-.17-.41,3.3,3.3,0,0,1,.2-2.36A2.47,2.47,0,0,1,13.28,87a2.72,2.72,0,0,1,2.28.45,2.89,2.89,0,0,1,1.17,1.8,3.78,3.78,0,0,1-.49,2.94L15,91.7a3.12,3.12,0,0,0,.29-2c-.21-.9-.71-1.26-1.52-1.07s-1.22.89-.95,2a8.07,8.07,0,0,0,.58,1.53l-4.47,1-1-4.52Zm1.41-37.69.54-1.35,8.89.24-.65,1.63-1.82-.13-1.11,2.78c.33.26.79.66,1.41,1.17l-.64,1.61ZM13,50.9l2.34,2,.75-1.87Zm94.75-31.75,1.44.83-.25.44a4.08,4.08,0,0,1-1.7,1.62c.13.6.27,1.3.47,2.09l-1.65-.95a1.7,1.7,0,0,1,0-.28l-.07-.33a2.91,2.91,0,0,1-2.06-.45,2.47,2.47,0,0,1-1.3-1.7,2.22,2.22,0,0,1,.29-1.57,3,3,0,0,1,2.23-1.43,2.72,2.72,0,0,1,.13-2.13,2,2,0,0,1,1.28-1,2.3,2.3,0,0,1,1.68.33,3.55,3.55,0,0,1,1.45,1.82l-.78.38-.28.14a3.13,3.13,0,0,0-1.05-1.06,1,1,0,0,0-.64-.14.67.67,0,0,0-.46.33,1.65,1.65,0,0,0-.08,1.08c0,.09,0,.15,0,.21,0,.25.11.61.17,1,.12.87.24,1.51.31,1.94a2.15,2.15,0,0,0,.63-.77Zm-2.44-.44a1.64,1.64,0,0,0-.83.77.92.92,0,0,0,.31,1.43,1,1,0,0,0,.88.13c0-.24-.09-.61-.17-1.1S105.36,19,105.34,18.71ZM91,16.47l-1.61-.54L92,8l1.61.54-1.07,3.18L96,12.87,97.05,9.7l1.64.55L96,18.16l-1.64-.55,1.16-3.42L92.14,13ZM67.91,6.37l1.44-.11,3.7,8.09-1.75.14c-.18-.43-.4-1-.68-1.7l-3,.23c-.09.4-.24,1-.43,1.78l-1.73.13Zm.9,2.19c-.19.72-.45,1.72-.79,3l2-.15C69.52,10.23,69.12,9.28,68.81,8.56ZM10.12,72.11H11V74h1.91v.86H11V76.8h-.86V74.89H8.21V74h1.91ZM140.56,55.83l-8,2.26-.46-1.63,8-2.27ZM114.18,29.11,113,27.93l5.77-6L120,23.07l-2.32,2.43,2.6,2.48,2.31-2.43,1.25,1.2-5.77,6-1.25-1.2,2.5-2.61-2.59-2.48Zm27.45,56-1-.86a4.83,4.83,0,0,0,.68-1.82c.09-.72-.14-1.12-.67-1.19a.73.73,0,0,0-.61.18,3.94,3.94,0,0,0-.64,1A5.88,5.88,0,0,1,138,84.3a2.18,2.18,0,0,1-1.62.42,2.28,2.28,0,0,1-1.85-1.2,3.26,3.26,0,0,1-.32-2,5.5,5.5,0,0,1,1.36-2.81l1,.89a3.5,3.5,0,0,0-.75,1.89c-.11.91.2,1.4.92,1.49.47.05.94-.38,1.39-1.31.71-1.49,1.65-2.18,2.8-2a2,2,0,0,1,1.57,1,3,3,0,0,1,.34,2A4.41,4.41,0,0,1,141.63,85.12ZM7.63,61.44l8.13,1.88L17,57.84l-1.35-.32-.89,3.81-2.17-.51.71-3L12,57.48l-.71,3-1.91-.44.84-3.64-1.35-.31Zm-1,20.8A2.82,2.82,0,0,1,7.8,79.62a5.13,5.13,0,0,1,2.77-1.12,5,5,0,0,1,3.33.58,2.86,2.86,0,0,1,.26,4.7,5.34,5.34,0,0,1-2.81,1.09,5.08,5.08,0,0,1-3.3-.57A2.73,2.73,0,0,1,6.64,82.24ZM8.11,82c.11.94,1.1,1.3,3,1.07a4.78,4.78,0,0,0,2.15-.68,1.09,1.09,0,0,0,.6-1,1.21,1.21,0,0,0-.92-1,5.15,5.15,0,0,0-2.18-.11C8.86,80.51,8,81.1,8.11,82ZM139.23,61.77l-5.5,1-.31-1.67,8.22-1.5L141.9,61q-2.33,2.58-4.92,5.16l5.67-1,.31,1.7-8.22,1.5-.26-1.46Q135.7,65.4,139.23,61.77ZM6.4,72l.14-1.85,3.88-1.58-3.6-2.12L7,64.62l4.82,3.21,3.29.25-.13,1.72-3.29-.25C9.83,70.42,8.07,71.24,6.4,72ZM29.29,23.09a3.4,3.4,0,0,1,3.25-.78A5.09,5.09,0,0,1,35.05,24,4.49,4.49,0,0,1,36.28,27a3.54,3.54,0,0,1-1.34,2.62,3.41,3.41,0,0,1-3.18.85,4.62,4.62,0,0,1-2.45-1.59A4.81,4.81,0,0,1,28,25.77,3.37,3.37,0,0,1,29.29,23.09ZM34,28.56a1.69,1.69,0,0,0,.63-1.51,3.47,3.47,0,0,0-1-1.9,3.82,3.82,0,0,0-1.89-1.33,1.7,1.7,0,0,0-1.54.39,1.64,1.64,0,0,0-.6,1.54,3.86,3.86,0,0,0,1,2Q32.49,29.85,34,28.56Zm5.61-2.87,1.46-.93-1.94-3,2.63-1.68L41,18.89l-2.62,1.67-1.07-1.67,3.15-2-.74-1.16-4.61,2.93ZM83.73,8.08l-2.4-.3.17-1.37,6.7.82L88,8.61l-2.58-.32L84.6,15.2,82.87,15ZM143.05,71l.16,5.46-1.38,0-.11-3.73-2,0,.09,3.12-1.38,0-.09-3.12-2.23.07.11,3.9-1.38,0-.17-5.63Zm-6.64-23-2.35.91a2.49,2.49,0,0,0,.19.85,1,1,0,0,0,.66.64,1.7,1.7,0,0,0,1.07-.09c.82-.33,1.1-.86.81-1.58A1.82,1.82,0,0,0,136.41,48Z"/><path class="cls-2" d="M144.8,101.58a.58.58,0,0,1-1.08-.42A73.7,73.7,0,1,0,6,101.16a.58.58,0,0,1-.34.75.56.56,0,0,1-.74-.33A73.82,73.82,0,0,1,1.24,88.46a74.86,74.86,0,1,1,148.48-13.6,75.27,75.27,0,0,1-1.24,13.6,73.82,73.82,0,0,1-3.68,13.12M23.74,95.09A55.06,55.06,0,1,1,128.84,85a54.43,54.43,0,0,1-3,10.1.58.58,0,1,0,1.07.43,55.72,55.72,0,0,0,3-10.31,56.74,56.74,0,0,0,1-10.73A56.22,56.22,0,1,0,19.61,85.19a55.19,55.19,0,0,0,3.06,10.33.58.58,0,1,0,1.07-.43Z"/><path class="cls-2" d="M126.36,114c-11.92,15.08-30.55,23.55-51.5,23.55s-39.44-8.4-51.36-23.37a6.92,6.92,0,0,0,1.66-1.55,6.5,6.5,0,0,0,1.15-5.39c-.9,5.64-7.89,8.46-11.89,4.78a5.92,5.92,0,0,0,5.3,3.16,6.89,6.89,0,0,0,2.77-.5l.1.15c11.58,16.5,30.67,28.22,52.27,28.22s40.8-11.78,52.37-28.36l.1-.12c.08.06,1,.37,1.15.42a7,7,0,0,0,1.91.19,5.93,5.93,0,0,0,5.31-3.16,7.2,7.2,0,0,1-11.9-4.78,6.55,6.55,0,0,0,2.56,6.76"/><path class="cls-3" d="M118.63,83.68h.42c.53,0,.78.15.78.52s-.23.5-.74.5h-.46Zm-.69-.43v3.22h.69V85.13h.5l.64,1.34h.77L119.83,85a.84.84,0,0,0,.71-.89c0-.56-.45-.87-1.36-.87Zm1.18-.79a2.42,2.42,0,0,1,1.75.73,2.45,2.45,0,0,1,.7,1.76,2.35,2.35,0,0,1-.71,1.7,2.52,2.52,0,0,1-1.78.72,2.48,2.48,0,0,1-2.42-2.46,2.5,2.5,0,0,1,.74-1.75A2.35,2.35,0,0,1,119.12,82.46Zm0-.43a2.77,2.77,0,0,0-2,.82,2.92,2.92,0,0,0-.87,2.06,2.92,2.92,0,0,0,2.88,2.89,2.93,2.93,0,0,0,2-.85,2.77,2.77,0,0,0,.84-2A2.87,2.87,0,0,0,119.11,82Z"/><path class="cls-3" d="M109.12,85.82a1.87,1.87,0,0,1,1.79-2.1,1.36,1.36,0,0,1,1.46,1.38c0,1.28-1.15,2.1-2.22,4.69h-.82a32.1,32.1,0,0,0-.21-4"/><path class="cls-3" d="M34.67,100.31a7,7,0,0,1-3.94-1.23l-.47.88h-1l-.73-5.44,1-.24c.69,2,2.33,4.29,4.89,4.29,1.29,0,2.26-.69,2.26-1.93s-1.06-1.91-2.28-2.83c-1.73-1.25-3.79-2.75-3.79-5.72,0-3.41,2.77-5,6-5a6,6,0,0,1,3.79,1.16l.41-.81h1l.69,4.83-1,.21c-.9-2.35-2.35-3.62-4.22-3.62-1.53,0-2,.77-2,1.6,0,1.2,1.16,2,2.49,2.85,1.81,1.17,3.92,2.56,3.92,5.39,0,3.69-3.1,5.58-6.95,5.58"/><path class="cls-3" d="M55,88.63h1.53l-2.09,9.21c-.13.61,0,.8.84.91L55,100a35.38,35.38,0,0,0-5.21.36L50,99.22a7.05,7.05,0,0,1-3.38,1.09c-1.74,0-3.46-.64-2.73-3.91l.88-3.91c.11-.47.06-.66-.28-.66h-.6l.28-1.15,4-2.05h1.53L48,96.52c-.22,1,.19,1.39.88,1.39a3,3,0,0,0,1.59-.52l1.1-4.9c.11-.47.06-.66-.28-.66h-.6L51,90.68Z"/><path class="cls-3" d="M53.31,105.08c1.68,0,1.53,2.43,2.3,2.43.41,0,.63-.5.75-1.11l2.77-13.91c.13-.47.06-.66-.28-.66h-.6l.28-1.15,4-2.05H64.1l-3.82,15.68c-1.09,3.83-3.08,5.13-6,5.13-1.62,0-2.83-1-2.83-2.31a1.88,1.88,0,0,1,1.88-2M65.09,85.34a2.28,2.28,0,0,1-2.32,2.3,2.06,2.06,0,0,1-2.13-2.16,2.27,2.27,0,0,1,2.28-2.36A2.15,2.15,0,0,1,65.09,85.34Z"/><path class="cls-3" d="M66.94,100.26a2.38,2.38,0,0,1-2.57-2.45c0-2.94,3.32-4.52,7.28-4.61L71.91,92c.32-1.34.26-1.76-.54-1.76-.6,0-1,.33-1.42,1.15A2.62,2.62,0,0,1,67.65,93a1.29,1.29,0,0,1-1.34-1.42c0-1.79,1.81-2.94,5.53-2.94,2.2,0,4.68.85,3.94,4l-1.14,5c-.11.52,0,.71.37.71a1.67,1.67,0,0,0,.6-.14l-.34,1.39a5.07,5.07,0,0,1-2.63.63c-1.25,0-2.17-.3-2.17-1.46a6.06,6.06,0,0,1-3.53,1.46m4.37-5.53c-1.6.09-2.59.73-2.59,2a.85.85,0,0,0,.93.94,2.13,2.13,0,0,0,1.1-.42Z"/><path class="cls-3" d="M86.11,92.42c.24-1-.2-1.39-.88-1.39a3,3,0,0,0-1.6.54l-1.42,6.27c-.13.61,0,.8.84.91l-.28,1.2H76.62l.28-1.2c.9-.11,1.09-.3,1.22-.91l1.21-5.35c.13-.47.06-.66-.28-.66h-.6l.28-1.15,4-2.05H84.3L84,89.74a7.23,7.23,0,0,1,3.4-1.11c1.75,0,3.49.64,2.74,3.91L89,97.84c-.13.61,0,.8.84.91l-.28,1.2H84.41Z"/><path class="cls-3" d="M91.23,98.75c.9-.11,1.09-.3,1.22-.91l1.21-5.35c.13-.47.06-.66-.28-.66h-.61l.28-1.15,4-2.05h1.53l-2.09,9.21c-.13.61,0,.8.84.91L97.1,100H91Zm8.39-13.41a2.28,2.28,0,0,1-2.32,2.3,2.06,2.06,0,0,1-2.14-2.16,2.27,2.27,0,0,1,2.29-2.36A2.15,2.15,0,0,1,99.62,85.34Z"/><path class="cls-3" d="M98.8,98.75c.9-.11,1.09-.3,1.22-.91L102.48,87c.1-.47.06-.66-.28-.66h-.61l.26-1.15,4.07-2h1.53l-3.34,14.72c-.13.61,0,.8.84.91l-.28,1.21H98.52Z"/><path class="cls-3" d="M120.38,96.12c0,2.59-2.33,4.19-5,4.19a5.93,5.93,0,0,1-3.4-1l-.39.69h-1l-.28-4.29.89-.14a4.67,4.67,0,0,0,3.91,3.15c.84,0,1.34-.44,1.34-1.06s-.78-1-1.72-1.41c-1.53-.68-3.27-1.51-3.27-3.69s2.06-3.89,4.84-3.89a3.88,3.88,0,0,1,2.84,1l.41-.69h.92l.22,3.82-1,.12c-.67-1.72-2-2.76-3-2.76a1,1,0,0,0-1.05,1c0,.59.64.94,1.46,1.31,1.79.83,3.32,1.58,3.32,3.68"/><path class="cls-4" d="M90.54,106.69a89.76,89.76,0,0,1-18.46-2.51l-6.77-1.66a1.32,1.32,0,0,0-.88,0c-.41.29,1,1,1.25,1.13.93.5,2.08,1,3.19,1.49a53.06,53.06,0,0,0,10.78,3.25,66.38,66.38,0,0,0,7.69,1c1,.08,2.1.11,3.18.11h0c1.08,0,2.14,0,3.18-.11a66.38,66.38,0,0,0,7.69-1,53.06,53.06,0,0,0,10.78-3.25c1.11-.47,2.26-1,3.19-1.49.24-.13,1.66-.84,1.25-1.13a1.32,1.32,0,0,0-.88,0L109,104.18a89.76,89.76,0,0,1-18.46,2.51"/><path class="cls-3" d="M67.22,40.44V36H82.16V41.1H79.44V66.32a4.27,4.27,0,0,1-.37,1.73A4.67,4.67,0,0,1,78,69.5a4.76,4.76,0,0,1-1.53.94,5,5,0,0,1-1.79.33,4.89,4.89,0,0,1-1.78-.33h0a4.7,4.7,0,0,1-1.54-.94A4.42,4.42,0,0,1,70.32,68a4.19,4.19,0,0,1-.38-1.72V41.1H67.22Zm1.32-3.15v2.49h2.72V66.32a2.83,2.83,0,0,0,.26,1.19,3.07,3.07,0,0,0,.74,1,3.68,3.68,0,0,0,1.11.69h0a3.72,3.72,0,0,0,2.63,0,3.56,3.56,0,0,0,1.11-.69,3.1,3.1,0,0,0,.75-1,3,3,0,0,0,.25-1.19V39.78h2.73V37.29Z"/><g class="cls-5"><rect class="cls-6" x="33.3" y="47.39" width="40.84" height="30.61"/></g><path class="cls-7" d="M62.27,78.24c-.45,0-.88,0-1.3,0h-.46l-.57,0-.49,0-.41,0-.45,0-.38,0-.37,0-.35,0-.36-.06H57l-.37-.07-.6-.12-.25,0-.51-.13-.81-.22-.23-.07-.2-.06-.78-.27L53,76.73l-.09,0c-.24-.1-.47-.19-.7-.3l0,0-.36-.16c-.35-.17-.69-.35-1-.53l-.32-.19-.63-.4c-.2-.13-.41-.27-.6-.41l-.58-.44-.55-.46-.2-.18h0l-.07-.06-.52-.49c-.21-.21-.41-.42-.61-.64s-.4-.44-.59-.67l-.45-.55L45.53,71l-.08-.1L45,70.34c-.21-.29-.41-.59-.61-.89L44,68.84l-.38-.63-.18-.32-.18-.32c-.06-.11-.13-.22-.18-.32l-.18-.33c-.12-.22-.24-.44-.35-.66l-.18-.33-.34-.67A.53.53,0,0,1,42,65v-.11a.25.25,0,0,1,0-.07l0-.11,0-.07.21-.25.06,0,.21.12-.1-.09h0l0-.07.08-.1a.58.58,0,0,0,.1-.12v0l0-.1h0l-.45-.91c-.07-.15-.14-.29-.22-.43l-.1-.18,0-.06-.11-.18,0-.06-.05-.08c0-.09-.11-.17-.16-.25l-.08-.11-.08-.11a2.32,2.32,0,0,0-.24-.28L41,61.28l0,0,.09-.23-.15.18c-.06,0-.08-.06-.1-.06l0-.24-.1.21-.21,0,0-.16a.7.7,0,0,1,0-.43l0,0a.16.16,0,0,1,0-.07.41.41,0,0,1,.1-.13l.44-.32c0-.08,0-.17,0-.23a12.75,12.75,0,0,0-1.74-2.19,14.93,14.93,0,0,1-1.62-2,.45.45,0,0,1,.12-.6l0,0,.2-.17.13-.1c.16-.12.18-.17.18-.18a3.21,3.21,0,0,1-.27-.32l-.59-.73-.06-.07L37.17,53l-.39-.43-.07-.07a3.89,3.89,0,0,0-.34-.36L36,51.67l-.51-.5c-.34-.32-.68-.64-1-1l-.5-.45c-.22-.2-.43-.38-.64-.55h-.15v-.4l.15-.06a11.13,11.13,0,0,1,7.68-.7c.12,0,.16,0,.16,0a.74.74,0,0,0,.08-.24c.06-.25.17-.72.76-.67a16.12,16.12,0,0,1,4.36,1.22c.56.21,1.09.41,1.6.57.09,0,.12,0,.25-.15a.61.61,0,0,1,.77-.3,24.52,24.52,0,0,1,5.66,3.62c.07.05.09.07.32-.15s.51-.48.92-.22a5.3,5.3,0,0,1,.89.72,3.47,3.47,0,0,1,.32.34l.16.18c.15.18.3.37.44.57a26.28,26.28,0,0,1,1.46,2.29c.41.7.83,1.42,1.28,2.06l.14-.22c.16-.28.31-.54.55-.58a.38.38,0,0,1,.33.11l.24.26c1.18,1.41,1.36,3.94,1.44,6.2,0,.4,0,.76,0,1.11,0,.66,0,1.31.06,1.93,0,.82.06,1.74.14,2.54l-.47.07a28.1,28.1,0,0,1-.29-4c-.07-2.84-.14-5.78-1.51-7.17a2.23,2.23,0,0,0-.2.3c-.16.28-.3.52-.54.53a.35.35,0,0,1-.31-.17c-.49-.67-.94-1.44-1.38-2.19a11.7,11.7,0,0,0-3.11-3.94c-.08,0-.13,0-.35.17s-.52.49-.93.17a25.18,25.18,0,0,0-5.54-3.55c-.09,0-.09,0-.22.14a.66.66,0,0,1-.78.32c-.52-.17-1-.37-1.62-.58a16,16,0,0,0-4.23-1.19c-.17,0-.19,0-.26.31a.8.8,0,0,1-.3.54.67.67,0,0,1-.53,0,10,10,0,0,0-6,.19,32.85,32.85,0,0,1,4.81,5c.28.37-.13.69-.38.87a1.35,1.35,0,0,0-.27.25,17.12,17.12,0,0,0,1.57,1.87,13.54,13.54,0,0,1,1.8,2.28c.33.58-.09.84-.31,1s-.23.15-.24.23c.67.26,1.34,1.53,2,2.84l.13.25c.18.37-.12.68-.34.91s-.29.29-.26.35c3.34,6.63,7.33,12.59,19.39,12.72v.48ZM48.1,73.15l.06,0,.07.06a28.11,28.11,0,0,1-5.45-8c-.18-.36.12-.67.34-.89s.29-.3.26-.37l-.13-.26c-.3-.61-1.17-2.4-1.71-2.6l.17.21.07.09.1.14.18.28.12.2c0,.06.07.13.11.2v0l.09.16c.09.15.16.3.23.44l.36.72-.18.17.21-.1.09.18a.58.58,0,0,1,0,.23l0,.09a.35.35,0,0,1-.07.17,1,1,0,0,1-.11.15v0l-.25.24c-.05.06-.11.12-.16.19l-.23-.08.2.13.06.17.28.55L43,66c.12.22.23.44.35.65l.18.33.18.32c.06.1.11.21.18.31l.18.32.37.62.39.6c.19.3.39.59.59.88l.42.56.08.1a1.09,1.09,0,0,0,.13.17c.14.19.29.37.44.55s.38.44.58.65.39.42.59.62ZM41,60.69h0a.8.8,0,0,1,.16.08l.06,0h0a.6.6,0,0,1,.07-.45l-.06,0-.06,0,0,0,0,.07h-.05l0,.08h0A.09.09,0,0,0,41,60.69Zm-.12-.27.06,0v0ZM38.54,55l-.12.09a1.26,1.26,0,0,0-.2.16l-.07.08a18.33,18.33,0,0,0,1.57,1.87,13.05,13.05,0,0,1,1.8,2.28.64.64,0,0,1,0,.66l.12-.07c.23-.15.26-.17.15-.36a12.75,12.75,0,0,0-1.74-2.19,14.18,14.18,0,0,1-1.62-2A.41.41,0,0,1,38.54,55Zm22.58,2.64h0l0,0ZM38,53.15c.19.22.37.44.55.67s.19.26.29.38a.45.45,0,0,1-.05.58l.11-.08c.1-.08.26-.2.28-.26a35.26,35.26,0,0,0-5-5.14l-.28-.25h0c.13.12.26.24.4.35l.52.47c.35.31.69.63,1,1l.51.5.4.41.4.42.09.05v0c.12.12.23.25.34.37l.4.45Zm16.48-.57.07.05s.07.06.15,0A.63.63,0,0,1,54.45,52.58Zm1-.42a.59.59,0,0,1,.31.1l-.16-.11a.14.14,0,0,0-.17,0ZM48.64,49a1,1,0,0,1,.22,0,16.25,16.25,0,0,1,2.9,1.59,16.16,16.16,0,0,0-3-1.66C48.71,48.92,48.69,48.91,48.64,49Zm-6.85-1.29h.09a16.12,16.12,0,0,1,4.36,1.22c.56.21,1.09.41,1.59.57.07,0,.1,0,.15,0a.59.59,0,0,1-.21,0c-.52-.17-1.05-.37-1.61-.58a15.91,15.91,0,0,0-4.24-1.19c-.08,0-.13,0-.16,0Zm-3.73.51a10.76,10.76,0,0,1,2.82.39.28.28,0,0,0,.16,0l0,0a.93.93,0,0,1-.22,0,9.92,9.92,0,0,0-5.63.07A10.76,10.76,0,0,1,38.06,48.18Z"/><path class="cls-7" d="M33.37,49h0l.69.6.52.46,1,1,.5.5.42.42c.14.14.27.28.4.43h0c.14.14.27.28.4.43l.39.44h0l.59.72.29.38c.11.16,0,.31-.22.46l-.07.05-.08.06-.19.16,0,0c-.1.11-.15.21-.08.31.92,1.44,2.55,2.73,3.37,4.18.11.21.11.34,0,.44a.16.16,0,0,1-.06.08l-.08.06,0,0-.07,0,0,0h0l-.09.06h0l0,0h0l-.06.05-.07.09,0,0s0,0,0,0a.47.47,0,0,0,0,.29h.06l0,0,.05,0A.6.6,0,0,1,41,61a.1.1,0,0,1,0,0l.06,0,.06,0,.07.07.26.3a.83.83,0,0,0,.08.12.83.83,0,0,1,.08.12,2.33,2.33,0,0,1,.17.26l.08.13h0a2,2,0,0,1,.14.25h0l.11.19c.08.14.15.28.22.42l.06.12.12.23.06.13.07.14.06.13,0,.06,0,.1h0a.22.22,0,0,1,0,.16s0,0,0,0a.21.21,0,0,1-.05.13l0,0a1.58,1.58,0,0,1-.12.15h0s0,0,0,0l-.07.06,0,0s0,0,0,0l0,0a1.81,1.81,0,0,0-.18.23l0,0a.08.08,0,0,1,0,0,0,0,0,0,1,0,0s0,0,0,0V65a.3.3,0,0,0,0,.12c0,.11.11.22.17.33s.11.23.17.34.12.22.17.33.24.44.35.66l.18.32.18.32.18.32.19.32.37.62.39.61.6.88q.21.3.42.57a3,3,0,0,0,.22.28c.14.19.29.37.44.55s.38.45.58.66.4.43.61.63.33.33.51.49h0l.26.23c.18.16.36.31.55.45l.56.44.6.41.62.39.32.18c.32.19.66.36,1,.53l.35.16h0c.23.11.48.21.72.31h0l.38.14.77.26.13,0,.3.1c.26.07.53.15.8.21l.33.08.14,0,.28.06.6.12.38.07h.07l.35,0,.35.06.37,0,.28,0h.1l.45,0,.4,0,.49,0,.56,0L61,78c.52,0,1.06,0,1.62,0-11.81-.13-16-5.71-19.6-12.85-.21-.43.81-.83.6-1.26-.39-.78-1.37-3-2.1-3-.22-.73,1-.55.55-1.3-.81-1.45-2.45-2.74-3.37-4.18-.23-.36.95-.69.67-1.06a33,33,0,0,0-5.08-5.22h0a10.33,10.33,0,0,1,6.56-.32c.81.21.25-1,1-.89,2,.16,4.12,1.2,5.9,1.78.54.17.49-.66,1-.46a25.12,25.12,0,0,1,5.61,3.59c.49.38.73-.68,1.26-.35,1.91,1.2,3,4.1,4.55,6.19.29.4.62-1.1,1-.75,2.24,2.16,1.29,8,1.92,11.38C63,68.52,63,67.66,63,66.76v0c-.05-1-.06-2-.1-3v0c-.08-2.39-.28-4.74-1.39-6.06a2.4,2.4,0,0,0-.22-.24c-.35-.34-.68,1.16-1,.76-1-1.37-1.81-3.09-2.81-4.45-.14-.2-.28-.38-.43-.56L56.88,53l-.32-.32a4.53,4.53,0,0,0-.84-.69c-.53-.33-.77.74-1.26.36a25.29,25.29,0,0,0-5.6-3.59c-.52-.21-.47.63-1,.46-1.77-.58-3.85-1.62-5.9-1.78-.79-.07-.23,1.1-1,.89a10.85,10.85,0,0,0-7.53.69"/><g class="cls-8"><rect class="cls-9" x="75.25" y="47.39" width="40.84" height="30.61"/></g><path class="cls-7" d="M102.29,61.12a7.88,7.88,0,0,1-3.8,0,28.2,28.2,0,0,1,6.62-7.23,22.75,22.75,0,0,1,8.47-4v-.31c-2.26-.42-8.15,3.1-8.93,3.69a26.76,26.76,0,0,0-3.71,3.39,12,12,0,0,1,1.22-3.42,30.18,30.18,0,0,1,2.7-3.78l-.22-.23a11.47,11.47,0,0,0-3.16,3.64A13.25,13.25,0,0,0,100,57.7v0A35,35,0,0,0,97.66,61c-.63,1.1-1.33,2.19-2.07,3.23A13.25,13.25,0,0,1,95.42,60a38.14,38.14,0,0,1,1.14-5.29l-.3-.13A14.86,14.86,0,0,0,94.66,60,13.45,13.45,0,0,0,95,65a36.26,36.26,0,0,1-5.39,5.81,9.26,9.26,0,0,1-.67-4,46.76,46.76,0,0,1,.69-6.07l-.3-.09a20.25,20.25,0,0,0-1.16,6.14A9.91,9.91,0,0,0,89,71.32a20.12,20.12,0,0,1-9.75,4.61v.32a6,6,0,0,0,.73,0,13.25,13.25,0,0,0,5.66-1.77,11.34,11.34,0,0,0,5,1.08h0a13.11,13.11,0,0,0,5.49-1.2l.06,0-.14-.29-.07,0a21.64,21.64,0,0,1-5.34.71,10.94,10.94,0,0,1-4.22-.78,26.66,26.66,0,0,0,3-2.16,33.85,33.85,0,0,0,2.63-2.38,10.55,10.55,0,0,0,5.56.24c.71-.14,5-1.56,5.63-3.1l.22-.56-.47.38A13.52,13.52,0,0,1,97.53,69a10.07,10.07,0,0,1-4.81-.1,40.92,40.92,0,0,0,5.36-7.13,8.55,8.55,0,0,0,4.38.09,8.11,8.11,0,0,0,4.24-2.66l-.23-.22A10.73,10.73,0,0,1,102.29,61.12Z"/><path class="cls-7" d="M87.19,78.24h-.32v-.48c12.06-.13,16-6.09,19.38-12.72,0-.06-.14-.24-.25-.35s-.53-.54-.34-.91l.12-.25c.63-1.31,1.31-2.58,2-2.84,0-.08-.09-.13-.24-.23s-.64-.41-.31-1a12.6,12.6,0,0,1,1.8-2.28,15.12,15.12,0,0,0,1.57-1.91l-.28-.21c-.24-.18-.65-.5-.37-.87a32.81,32.81,0,0,1,4.8-5,10,10,0,0,0-6-.19.65.65,0,0,1-.52,0,.77.77,0,0,1-.3-.54c-.07-.29-.1-.32-.26-.31a15.91,15.91,0,0,0-4.24,1.19c-.56.21-1.1.41-1.61.58a.66.66,0,0,1-.78-.32c-.13-.17-.14-.17-.22-.14A24.87,24.87,0,0,0,95.22,53c-.4.32-.74,0-.92-.17s-.27-.22-.36-.17a11.56,11.56,0,0,0-3.1,3.94c-.44.75-.89,1.52-1.38,2.19a.35.35,0,0,1-.32.17c-.24,0-.37-.25-.53-.53-.06-.09-.14-.23-.2-.3C87,59.52,87,62.46,86.89,65.3a26.72,26.72,0,0,1-.29,4l-.46-.07c.07-.8.11-1.72.13-2.51v-.06c0-.59,0-1.25.06-1.91,0-.35,0-.7,0-1.05.07-2.31.25-4.84,1.44-6.25a1.88,1.88,0,0,1,.24-.25.34.34,0,0,1,.32-.12c.25,0,.4.3.56.58l.13.22c.45-.64.88-1.36,1.29-2.06a26.21,26.21,0,0,1,1.45-2.29c.15-.2.29-.39.45-.57l.15-.18c.11-.12.22-.24.33-.34a5.79,5.79,0,0,1,.88-.72.72.72,0,0,1,.93.22c.23.22.25.2.31.15a24.74,24.74,0,0,1,5.66-3.62.6.6,0,0,1,.77.3c.14.17.16.18.26.15.5-.16,1-.36,1.59-.57a16.08,16.08,0,0,1,4.37-1.22c.58,0,.69.42.75.67,0,.08,0,.22.09.24s0,0,.15,0a11.15,11.15,0,0,1,7.69.7l.14.06v.4h-.15l-.62.54-.52.46-1,1-.5.5c-.14.13-.27.26-.4.4s-.25.25-.36.38h0l-.06.07-.4.42-.35.41,0,0-.59.72-.28.36h0s0,.05.17.14l-.07.24.14-.18.07,0,.21.18c.3.3.22.52.15.63a14.18,14.18,0,0,1-1.62,2,12.75,12.75,0,0,0-1.74,2.19c0,.06-.08.15,0,.2l.08.07.38.27a1.1,1.1,0,0,1,.11.14l0,.06a.45.45,0,0,1,0,.08.63.63,0,0,1,0,.39v.18l-.27,0-.1.05-.19-.15.14.19-.09.08-.06.05a2.31,2.31,0,0,0-.24.29l-.05.07a.77.77,0,0,0-.11.15l-.17.25,0,.08h0l0,.06-.1.18h0l0,.06-.09.16-.23.44-.15.31-.26,0,.22.1-.26.52,0,0,0,.11.09.1.13.14-.15.18.19-.14a2.18,2.18,0,0,1,.22.26.41.41,0,0,1,0,.09l0,.06h0s0,0,0,.07l0,.06V65a.44.44,0,0,1,0,.22l-.34.67-.18.34-.35.66-.18.33-.18.32a3.37,3.37,0,0,1-.19.32l-.18.32c-.12.21-.25.42-.38.63l-.39.6c-.2.31-.4.61-.61.9l-.42.58-.08.1-.14.18-.44.55c-.2.23-.39.46-.6.67s-.4.43-.61.64l-.51.49-.07.06-.2.18-.55.46-.58.44-.61.42L99,75.5l-.33.19c-.32.18-.67.36-1,.53l-.35.16-.05,0-.69.29-.09,0-.3.11-.77.27-.2.06-.24.07-.81.22-.76.18-.6.12-.39.07H92.3L92,77.9l-.35,0-.37,0-.33,0-.5,0-.41,0-.49,0c-.17,0-.35,0-.53,0l-.49,0C88.07,78.23,87.63,78.24,87.19,78.24Zm20.73-17.11c-.54.2-1.42,2-1.72,2.6l-.12.26c0,.07.13.24.26.37s.52.53.33.89a28.16,28.16,0,0,1-5.45,8l.08-.07.07-.06.43-.42.6-.61.58-.66.43-.54.14-.18.08-.1c.14-.18.27-.37.41-.56s.4-.58.6-.88.26-.4.38-.6l.37-.62.19-.32.18-.31.18-.32.17-.32c.12-.22.24-.44.35-.66l.18-.33L107,65V65a1.51,1.51,0,0,0-.19-.22l-.24-.26a1.13,1.13,0,0,1-.1-.13v0h0a.6.6,0,0,1-.08-.21.49.49,0,0,1,0-.28h0l.47-1,.23-.43.1-.17h0l.12-.2h0l.11-.19.18-.27.09-.13a.33.33,0,0,1,.09-.12A1.2,1.2,0,0,1,107.92,61.13Zm.22-.74a.65.65,0,0,1,.08.45v0l.07,0,.14-.08h0v0l0,0h0l-.21-.19ZM110.91,55a.44.44,0,0,1,.07.55,14.93,14.93,0,0,1-1.62,2,12.75,12.75,0,0,0-1.74,2.19c-.11.19-.09.21.15.36l.11.07a.64.64,0,0,1,.05-.66,13.54,13.54,0,0,1,1.8-2.28,14.87,14.87,0,0,0,1.56-1.89s0,0,0,0a1.24,1.24,0,0,0-.19-.16Zm-2.41,5.08ZM88.32,57.61l0,0h0Zm27.32-8.56-.29.25a34.21,34.21,0,0,0-5,5.18l.29.22.11.08a.43.43,0,0,1,0-.58c.08-.12.17-.23.26-.34s.39-.49.57-.71h0l.06-.07.39-.45c.11-.12.22-.25.34-.37v0l.09-.05.39-.4.42-.43.51-.5c.34-.33.69-.65,1-1l.5-.45.42-.37ZM94.78,52.63c.09.06.11,0,.16,0l.06-.05A.54.54,0,0,1,94.78,52.63Zm-.84-.5-.08,0-.15.1a.71.71,0,0,1,.32-.09Zm6.81-3.21-.06,0a16.25,16.25,0,0,0-3,1.68A16.61,16.61,0,0,1,100.59,49a1.12,1.12,0,0,1,.22,0A.07.07,0,0,0,100.75,48.92Zm.72.52a.12.12,0,0,0,.15,0c.51-.16,1-.36,1.59-.57a16.29,16.29,0,0,1,4.37-1.22h.12s-.08,0-.17,0a16,16,0,0,0-4.23,1.19c-.57.21-1.1.41-1.62.58A.52.52,0,0,1,101.47,49.44Zm6.93-.89s0,0,0,0,0,0,.16,0a10.27,10.27,0,0,1,5.66,0,9.89,9.89,0,0,0-5.62-.07A1,1,0,0,1,108.4,48.55Z"/><path class="cls-7" d="M116.09,49h0l-.69.6-.53.46-1,1-.51.5-.41.42c-.14.14-.28.28-.41.43h0c-.14.14-.27.28-.4.43l-.39.44h0c-.21.24-.4.48-.6.72l-.28.38c-.12.16,0,.31.21.46l.08.05.07.06a1,1,0,0,1,.19.16l0,0c.1.11.15.21.09.31-.92,1.44-2.56,2.73-3.37,4.18-.12.21-.11.34,0,.44l.06.08.08.06,0,0,.06,0,.05,0a0,0,0,0,1,0,0l.1.06h0l.06,0h0l0,.05.07.09,0,0s0,0,0,0a.42.42,0,0,1,0,.29h0l0,0-.06,0-.1.06-.06,0-.05,0-.06,0-.07.07a2.55,2.55,0,0,0-.26.3l-.08.12-.09.12c-.06.08-.11.17-.17.26l-.08.13h0l-.14.25h0a1.14,1.14,0,0,0-.1.19c-.08.14-.16.28-.23.42l-.06.12-.11.23-.06.13-.07.14-.07.13a.14.14,0,0,1,0,.06l-.06.1h0a.41.41,0,0,0,0,.16v0a.5.5,0,0,0,.05.13l0,0a.87.87,0,0,0,.13.15h0l0,0,.06.06,0,0,0,0,0,0a1.92,1.92,0,0,1,.19.23l0,0a.08.08,0,0,1,0,0,0,0,0,0,1,0,0,.08.08,0,0,1,0,0,.13.13,0,0,1,0,.06.3.3,0,0,1,0,.12c-.06.11-.12.22-.17.33s-.12.23-.17.34l-.18.33c-.11.22-.23.44-.35.66l-.18.32-.18.32-.18.32-.18.32c-.13.21-.25.42-.38.62l-.38.61c-.2.3-.4.59-.61.88s-.27.39-.42.57l-.21.28-.44.55c-.19.22-.39.45-.59.66s-.4.43-.6.63l-.51.49h0l-.27.23q-.27.24-.54.45l-.57.44c-.19.14-.39.28-.6.41l-.61.39-.33.18c-.32.19-.65.36-1,.53l-.35.16h0l-.73.31h0l-.37.14-.78.26-.12,0-.3.1c-.27.07-.53.15-.81.21l-.32.08-.15,0-.28.06-.6.12-.38.07h-.07l-.35,0-.35.06-.37,0-.27,0h-.11l-.44,0-.41,0-.49,0-.55,0-.46,0c-.52,0-1.06,0-1.61,0,11.81-.13,16-5.71,19.59-12.85.22-.43-.81-.83-.59-1.26.38-.78,1.36-3,2.1-3,.22-.73-1-.55-.56-1.3.82-1.45,2.45-2.74,3.37-4.18.23-.36-.94-.69-.67-1.06a33.55,33.55,0,0,1,5.09-5.22h0a10.31,10.31,0,0,0-6.55-.32c-.81.21-.25-1-1-.89-2,.16-4.13,1.2-5.91,1.78-.54.17-.49-.66-1-.46a25.29,25.29,0,0,0-5.6,3.59c-.49.38-.74-.68-1.26-.35-1.91,1.2-3.06,4.1-4.55,6.19-.3.4-.62-1.1-1-.75-2.23,2.16-1.28,8-1.92,11.38.07-.77.11-1.63.14-2.53v0c0-1,.06-2,.09-3v0c.08-2.39.28-4.74,1.39-6.06l.22-.24c.35-.34.68,1.16,1,.76,1-1.37,1.81-3.09,2.81-4.45.14-.2.29-.38.44-.56l.15-.18.31-.32a4.94,4.94,0,0,1,.85-.69c.52-.33.77.74,1.26.36a24.83,24.83,0,0,1,5.6-3.59c.52-.21.47.63,1,.46,1.78-.58,3.85-1.62,5.91-1.78.78-.07.22,1.1,1,.89a10.86,10.86,0,0,1,7.53.69"/><path class="cls-7" d="M70.13,75.93a20.05,20.05,0,0,1-9.74-4.61,9.79,9.79,0,0,0,.82-4.48,20.23,20.23,0,0,0-1.15-6.14l-.31.09a47.06,47.06,0,0,1,.7,6.07,9.41,9.41,0,0,1-.67,4A36.31,36.31,0,0,1,54.38,65,13.24,13.24,0,0,0,54.73,60a14.67,14.67,0,0,0-1.61-5.34l-.29.13A41.28,41.28,0,0,1,54,60a13,13,0,0,1-.18,4.16c-.74-1-1.43-2.13-2.08-3.25a32,32,0,0,0-2.32-3.2v0a13.46,13.46,0,0,0-1.49-4.84,11.34,11.34,0,0,0-3.16-3.64l-.22.23a29.09,29.09,0,0,1,2.71,3.78,12,12,0,0,1,1.22,3.42,27.34,27.34,0,0,0-3.71-3.39c-.78-.59-6.69-4.11-8.93-3.69v.31a22.72,22.72,0,0,1,8.48,4,28.17,28.17,0,0,1,6.61,7.23,7.84,7.84,0,0,1-3.79,0A10.69,10.69,0,0,1,42.91,59l-.23.22a8.11,8.11,0,0,0,4.24,2.66,8.59,8.59,0,0,0,4.39-.09,40.87,40.87,0,0,0,5.35,7.13,10.07,10.07,0,0,1-4.81.1,13.54,13.54,0,0,1-5.53-2.53l-.47-.38.22.56c.62,1.54,4.92,3,5.63,3.1a10.55,10.55,0,0,0,5.56-.24,32.12,32.12,0,0,0,2.63,2.38,27,27,0,0,0,3,2.16,10.94,10.94,0,0,1-4.22.78,21.66,21.66,0,0,1-5.35-.71l-.06,0-.14.29.06,0a13.07,13.07,0,0,0,5.48,1.2h0a11.34,11.34,0,0,0,5-1.08A13.21,13.21,0,0,0,69.4,76.3a5.84,5.84,0,0,0,.73,0Z"/><path class="cls-7" d="M72.46,29.22a2,2,0,0,0,0,4,2,2,0,0,0,1.4-.58h0a2,2,0,0,0-1.4-3.38Zm-1.15.83a1.62,1.62,0,0,1,1.15-.47,1.64,1.64,0,0,1,1.15.47.76.76,0,0,1,.11.14,1.73,1.73,0,0,1,.09.56,1.8,1.8,0,0,1-1.8,1.8,2,2,0,0,1-.56-.08l-.14-.12a1.62,1.62,0,0,1,0-2.3Z"/><path class="cls-7" d="M76.19,28.78a1.11,1.11,0,0,0,1.12-1.13,1.11,1.11,0,0,0-.32-.79,1.16,1.16,0,0,0-.8-.33,1.12,1.12,0,0,0-.79.33,1.08,1.08,0,0,0-.33.79,1.13,1.13,0,0,0,1.12,1.13Zm-.6-1.73a.85.85,0,0,1,1.2,0,.69.69,0,0,1,.11.13.93.93,0,0,1,0,.23,1,1,0,0,1-1,1,.85.85,0,0,1-.23,0l-.13-.1a.85.85,0,0,1-.25-.61A.82.82,0,0,1,75.59,27.05Z"/><path class="cls-7" d="M77.45,32.05a1.5,1.5,0,0,0-2.1,0,1.48,1.48,0,0,0,1.05,2.53,1.48,1.48,0,0,0,1-.44,1.43,1.43,0,0,0,.43-1A1.47,1.47,0,0,0,77.45,32.05Zm-1.84.25A1.12,1.12,0,0,1,76.4,32a1.16,1.16,0,0,1,.8.33,1.44,1.44,0,0,1,.18.25,1.07,1.07,0,0,1,0,.25,1.31,1.31,0,0,1-1.31,1.3l-.24,0a1.18,1.18,0,0,1-.25-.19,1.08,1.08,0,0,1-.33-.79A1.12,1.12,0,0,1,75.61,32.3Z"/><path class="cls-10" d="M76,65.28a.88.88,0,0,1,.63,1.51h0a.88.88,0,0,1-.63.26.9.9,0,0,1-.63-.26.88.88,0,0,1,0-1.25.9.9,0,0,1,.63-.26"/><path class="cls-11" d="M76.7,66.17a.72.72,0,0,1-.21.51h0a.76.76,0,0,1-.52.21.72.72,0,0,1-.51-.21.75.75,0,0,1-.2-.37.08.08,0,0,0,0,0,.69.69,0,0,0,.51.22.73.73,0,0,0,.52-.22h0a.72.72,0,0,0,.21-.51.77.77,0,0,0,0-.15.75.75,0,0,1,.18.48"/><path class="cls-12" d="M54.3,79.87l-.09,0A1.62,1.62,0,0,1,53,79,1.68,1.68,0,0,1,53,77.54l1.45-4.19c.21-.93.84-1.37,2-1.37H82c1.53,0,1.69-.25,1.75-.55l0-3.69H62.84c-.21,0-.44,0-.65,0a3.82,3.82,0,0,1-3.58-1.71c-.61-1.12-.41-2.59.58-4.13.62-1.14,1.6-2.61,2.55-4,.54-.81,1-1.57,1.43-2.19l0,0c1-1.62,2-3.29,2.93-4.88,1.46-2.67,3-2.88,4.68-2.88h1l14.84,0a1.89,1.89,0,0,1,1.51.57,1.27,1.27,0,0,1,.21,1.12c-.42,1.52-.84,3-1.25,4.55a2,2,0,0,1-1.74,1.63l-.09,0-11.93,0c-.67,1.15-1.36,2.3-2,3.37H84.74l2.11,0h0a5.66,5.66,0,0,1,4.56,2.25c.58.86,2.6,5.1,3.57,7.3.87,2,1.78,4.31,1.5,6.43-.36,2.8-2.68,4.68-5.77,4.68Z"/><path class="cls-4" d="M85.36,54.74l-12.63,0c-1,1.78-2.11,3.57-3.23,5.38l16.28,0-2.25,6.76-20.94,0c-3.11.28-4.73-1.52-2.85-4.44,1-1.8,2.95-4.56,4-6.32s2.12-3.39,3-5c1.36-2.49,2.57-2.46,4.58-2.43.2,0-.41,0,.33,0l15.06,0c.69,0,.94.17.86.5L86.35,53.8a1.1,1.1,0,0,1-1,.94m1.47,5.36-2.18,6.74.18,4.82c-.23,1.26-1.28,1.45-3,1.44H56.15c-1,0-1,.34-1.09.68l-1.51,4.38c-.28.56-.13.9.47,1H91c2.65,0,4.62-1.47,4.94-3.91.26-2-.71-4.32-1.46-6-1-2.37-3-6.5-3.55-7.27A5,5,0,0,0,86.83,60.1Z"/><path class="cls-13" d="M85.19,60.09h.58l-2.25,6.76-20.93,0c-1.84.17-3.15-.39-3.54-1.48a3.73,3.73,0,0,0,3.16.85l20.94,0Zm.17-5.35-12.63,0c-.9,1.58-1.86,3.15-2.84,4.75l-.39.63h-.75c0-.05.42-.72.45-.76,1.09-1.78,2.16-3.52,3.15-5.26l12.63,0a1.1,1.1,0,0,0,1-.94l1.24-4.48c.36.06.48.22.42.47L86.35,53.8A1.11,1.11,0,0,1,85.36,54.74ZM53.42,78.49c-.07.37.12.6.6.69H91c2.65,0,4.62-1.47,4.94-3.91.26-2-.72-4.32-1.47-6-1-2.37-3-6.5-3.54-7.27l-.06-.08c.77,1.41,2.34,4.7,3.23,6.72.75,1.72,1.72,4.07,1.46,6-.32,2.44-2.29,3.92-4.94,3.91h-37A.79.79,0,0,1,53.42,78.49Z"/></g></g></svg>